<?xml version="1.0" encoding="utf-8"?>
<!-- Generator: Adobe Illustrator 19.0.0, SVG Export Plug-In . SVG Version: 6.00 Build 0)  -->
<svg version="1.1" id="Layer_1" xmlns="http://www.w3.org/2000/svg" xmlns:xlink="http://www.w3.org/1999/xlink" x="0px" y="0px"
	 viewBox="0 0 96 96" style="enable-background:new 0 0 96 96;" xml:space="preserve">
<style type="text/css">
	.st0{fill:#326CE5;}
</style>
<g id="XMLID_1_">
	<path id="XMLID_3_" class="st0" d="M58.3,37.7c0-5.7-4.6-10.3-10.3-10.3c-5.7,0-10.3,4.6-10.3,10.3S42.3,48,48,48
		C53.7,48,58.3,43.4,58.3,37.7z"/>
	<path id="XMLID_4_" class="st0" d="M27.3,48h5.9V36.2c0-8.1,6.6-14.8,14.8-14.8c8.1,0,14.8,6.6,14.8,14.8V48h5.9
		c4.9,0,8.9-4,8.9-8.9c0-4.9-4-8.9-8.9-8.9h-0.9C65.3,21.7,57.3,15.5,48,15.5c-9.3,0-17.3,6.2-19.8,14.8h-0.9c-4.9,0-8.9,4-8.9,8.9
		C18.5,44,22.4,48,27.3,48z"/>
	<path id="XMLID_5_" class="st0" d="M48,51c-6.5,0-12.3,3.6-15.3,8.9h30.7C60.3,54.5,54.5,51,48,51z"/>
	<rect id="XMLID_6_" x="18.5" y="71.6" class="st0" width="59.1" height="8.9"/>
	<path id="XMLID_7_" class="st0" d="M24.4,62.8c-1.6,0-3,1.3-3,3v3H45v-3c0-1.6-1.3-3-3-3H24.4z"/>
	<path id="XMLID_8_" class="st0" d="M74.6,65.7c0-1.6-1.3-3-3-3H53.9c-1.6,0-3,1.3-3,3v3h23.6V65.7z"/>
</g>
</svg>
