<?xml version="1.0" encoding="UTF-8" standalone="no"?>
<svg
   xmlns:dc="http://purl.org/dc/elements/1.1/"
   xmlns:cc="http://creativecommons.org/ns#"
   xmlns:rdf="http://www.w3.org/1999/02/22-rdf-syntax-ns#"
   xmlns:svg="http://www.w3.org/2000/svg"
   xmlns="http://www.w3.org/2000/svg"
   xmlns:sodipodi="http://sodipodi.sourceforge.net/DTD/sodipodi-0.dtd"
   xmlns:inkscape="http://www.inkscape.org/namespaces/inkscape"
   height="243.75"
   width="243.75"
   fill="#000000"
   version="1.1"
   x="0px"
   y="0px"
   viewBox="0 0 416 416"
   enable-background="new 0 0 512 512"
   xml:space="preserve"
   id="svg876"
   sodipodi:docname="earth.svg"
   inkscape:version="1.0.1 (3bc2e813f5, 2020-09-07)"><metadata
     id="metadata882"><rdf:RDF><cc:Work
         rdf:about=""><dc:format>image/svg+xml</dc:format><dc:type
           rdf:resource="http://purl.org/dc/dcmitype/StillImage" /><dc:title></dc:title></cc:Work></rdf:RDF></metadata><defs
     id="defs880" /><sodipodi:namedview
     pagecolor="#ffffff"
     bordercolor="#666666"
     borderopacity="1"
     objecttolerance="10"
     gridtolerance="10"
     guidetolerance="10"
     inkscape:pageopacity="0"
     inkscape:pageshadow="2"
     inkscape:window-width="1847"
     inkscape:window-height="1390"
     id="namedview878"
     showgrid="false"
     inkscape:zoom="3.98"
     inkscape:cx="121.875"
     inkscape:cy="121.62353"
     inkscape:window-x="1950"
     inkscape:window-y="34"
     inkscape:window-maximized="0"
     inkscape:current-layer="svg876"
     fit-margin-top="0"
     fit-margin-left="0"
     fit-margin-right="0"
     fit-margin-bottom="0" /><path
     d="M 208,0 C 93.124,0 0,93.125 0,208 0,322.875 93.124,416 208,416 322.875,416 416,322.875 416,208 416,93.125 322.875,0 208,0 Z M 186.451,384.999 C 146.987,380.273 110.473,362.607 81.932,334.067 48.258,300.393 29.714,255.622 29.714,208 c 0,-42.87 15.036,-83.424 42.601,-115.659 0.71,8.517 2.463,17.648 2.014,24.175 -1.64,23.795 -3.988,38.687 9.94,58.762 5.426,7.819 6.759,19.028 9.4,28.078 2.583,8.854 12.902,13.498 20.019,18.953 14.359,11.009 28.096,23.805 43.322,33.494 10.049,6.395 16.326,9.576 13.383,21.839 -2.367,9.862 -3.028,15.937 -8.13,24.723 -1.557,2.681 5.877,19.918 8.351,22.392 7.498,7.497 14.938,14.375 23.111,21.125 12.671,10.469 -1.231,24.072 -7.274,39.117 z m 147.616,-50.932 c -25.633,25.633 -57.699,42.486 -92.556,49.081 4.94,-12.216 13.736,-23.07 21.895,-29.362 7.097,-5.476 15.986,-16.009 19.693,-24.352 3.704,-8.332 8.611,-15.555 13.577,-23.217 7.065,-10.899 -17.419,-27.336 -25.353,-30.781 -17.854,-7.751 -31.294,-18.21 -47.161,-29.375 -11.305,-7.954 -34.257,4.154 -47.02,-1.417 -17.481,-7.633 -31.883,-20.896 -47.078,-32.339 -15.68,-11.809 -14.922,-25.576 -14.922,-42.997 12.282,0.453 29.754,-3.399 37.908,6.478 2.573,3.117 11.42,17.042 17.342,12.094 4.838,-4.043 -3.585,-20.249 -5.212,-24.059 -5.005,-11.715 11.404,-16.284 19.803,-24.228 10.96,-10.364 34.47,-26.618 32.612,-34.047 -1.858,-7.429 -23.524,-28.477 -36.249,-25.193 -1.907,0.492 -18.697,18.097 -21.941,20.859 0.086,-5.746 0.172,-11.491 0.26,-17.237 0.055,-3.628 -6.768,-7.352 -6.451,-9.692 0.8,-5.914 17.262,-16.647 21.357,-21.357 -2.869,-1.793 -12.659,-10.202 -15.622,-8.968 -7.174,2.99 -15.276,5.05 -22.45,8.039 0,-2.488 -0.302,-4.825 -0.662,-7.133 14.376,-6.365 29.587,-10.791 45.31,-13.152 l 14.084,5.66 9.944,11.801 9.924,10.233 8.675,2.795 L 237.553,49.206 234,39.929 V 31.59 c 27.25,3.958 52.984,14.124 75.522,29.8 -4.032,0.361 -8.463,0.954 -13.462,1.59 -2.065,-1.22 -4.714,-1.774 -6.965,-2.623 6.531,14.042 13.343,27.89 20.264,41.746 7.393,14.801 23.793,30.677 26.673,46.301 3.394,18.416 1.039,35.144 2.896,56.811 1.788,20.865 23.524,44.572 23.524,44.572 0,0 10.037,3.419 18.384,2.228 -7.781,30.783 -23.733,59.014 -46.769,82.052 z"
     id="path874" /><path
     style="fill:#326ce5;stroke-width:0.42917"
     d="m 195.76865,415.43957 c -0.82615,-0.0778 -3.91617,-0.34785 -6.86672,-0.60018 -42.864,-3.6656 -85.13774,-21.88464 -118.021793,-50.86476 C 65.204163,358.97249 54.846012,348.52348 50.274874,343.18861 23.711285,312.18684 6.8287533,273.94177 1.8052959,233.38741 -3.5273719,190.33679 4.9357152,146.15462 25.77402,108.25687 48.103008,67.648086 83.885105,35.133146 126.12119,17.072104 151.20012,6.3478214 175.90976,1.0119382 203.27913,0.41035529 219.6263,0.05104051 233.4981,1.2091743 248.342,4.1725757 321.54239,18.786128 381.36579,71.481121 405.03109,142.19097 c 14.28538,42.68348 14.27485,88.8333 -0.03,131.68666 -19.36506,58.01206 -63.87748,104.94107 -120.82335,127.38287 -19.95813,7.86529 -39.56452,12.31333 -61.77899,14.01556 -5.23565,0.40118 -22.95025,0.50997 -26.63006,0.1635 z m -7.49711,-33.73714 c 0.95151,-1.94506 3.48945,-6.92934 5.63986,-11.07624 4.63807,-8.94407 5.72155,-12.63071 4.9428,-16.81822 -0.71525,-3.84605 -2.24957,-5.78859 -9.5231,-12.05668 -3.65866,-3.15293 -9.51379,-8.497 -13.01139,-11.87572 -6.25341,-6.04087 -6.39785,-6.22229 -8.6777,-10.89953 -2.44299,-5.01192 -5.34862,-13.1356 -5.34862,-14.95386 0,-0.59189 0.75892,-2.59526 1.68648,-4.45195 2.18513,-4.37386 3.52179,-8.42108 5.45932,-16.5301 2.00028,-8.37161 2.21467,-13.68829 0.66874,-16.5835 -1.55584,-2.91377 -3.97427,-5.00449 -11.39957,-9.85487 -8.63025,-5.6375 -15.95267,-11.09234 -26.80925,-19.97164 -14.2396,-11.64619 -18.66276,-15.08548 -24.17311,-18.79618 -6.0225,-4.05559 -11.341161,-9.0872 -12.771276,-12.08199 -0.534076,-1.11841 -2.101943,-6.46492 -3.484148,-11.88113 -2.757682,-10.80605 -3.995515,-13.90932 -8.265017,-20.72056 -4.683171,-7.47119 -6.843032,-12.44738 -8.530971,-19.65487 -1.254666,-5.35742 -1.501404,-17.29728 -0.62082,-30.04191 0.734573,-10.63133 0.696548,-11.7145 -0.887768,-25.289879 l -0.722616,-6.191806 -1.708878,1.900104 c -2.81655,3.131735 -10.402784,13.512651 -13.753522,18.820161 -15.009076,23.77412 -23.990769,50.16402 -26.654997,78.31736 -0.838267,8.8581 -0.834987,25.17859 0.0068,33.98117 3.154316,32.98362 14.787214,63.25839 34.397786,89.52069 26.013432,34.83696 63.927577,59.24038 105.657557,68.00644 4.89818,1.02893 13.87767,2.58152 15.50959,2.68165 0.39721,0.0244 1.3063,-1.31487 2.37379,-3.49694 z m 68.1721,-1.84867 c 44.45146,-12.35387 82.85322,-42.33596 106.60311,-83.23012 6.9392,-11.94836 13.92894,-28.85779 17.26356,-41.76364 0.26304,-1.01795 0.59495,-2.15497 0.73761,-2.52673 0.22265,-0.58024 -0.0251,-0.63328 -1.74981,-0.37463 -2.41174,0.36166 -9.1086,-0.38257 -13.46251,-1.49612 -2.47313,-0.63252 -3.40356,-1.10193 -4.31645,-2.17769 -8.62324,-10.16175 -16.35276,-22.64383 -19.54919,-31.56929 -2.89935,-8.09586 -3.22253,-11.28335 -3.71198,-36.6116 -0.21211,-10.97602 -0.60071,-21.79111 -0.86357,-24.03352 -1.57563,-13.44152 -3.86228,-18.52162 -16.32349,-36.26488 -8.30563,-11.82622 -9.76326,-14.28561 -16.15192,-27.252309 -6.00614,-12.190284 -15.16208,-31.240186 -15.16208,-31.546313 0,-0.108953 1.3036,0.303656 2.89689,0.916917 1.5933,0.613264 3.28317,1.111423 3.75525,1.107019 1.53071,-0.01434 12.83905,-1.413343 13.03887,-1.613165 0.26494,-0.264939 0.43543,-0.140612 -5.09922,-3.718449 C 284.81716,45.073203 262.75767,36.420971 239.56764,32.29063 l -5.60283,-0.997912 v 4.650873 c 0,4.376807 0.098,4.903493 1.66241,8.937752 l 1.66243,4.286877 -6.56784,6.125065 c -3.61229,3.368789 -6.78045,6.195948 -7.04034,6.28258 -0.25989,0.08663 -2.20573,-0.374154 -4.32408,-1.023971 l -3.85153,-1.18148 -5.68419,-5.849996 c -3.12631,-3.217498 -7.61546,-8.199408 -9.9759,-11.070909 l -4.2917,-5.220914 -7.20268,-2.89265 -7.20266,-2.892648 -5.45785,0.985266 c -11.18582,2.019292 -22.5143,5.25442 -33.46103,9.555625 l -6.54468,2.571544 0.27399,3.720458 c 0.1507,2.046254 0.30524,3.762415 0.34342,3.813692 0.0382,0.05129 4.79124,-1.557192 10.56239,-3.574383 5.77113,-2.017185 11.11325,-3.875702 11.87138,-4.130036 1.20749,-0.405081 1.71307,-0.295484 4.07711,0.883806 2.68326,1.338518 10.73342,7.0351 10.98426,7.772834 0.0722,0.21243 -3.30748,3.269886 -7.51049,6.794348 -8.43343,7.071935 -11.1808,9.808508 -12.55861,12.509233 -1.17984,2.312674 -0.93508,3.030953 2.13053,6.252696 1.35122,1.420012 2.67573,3.003681 2.94339,3.51926 0.31921,0.614889 0.48665,4.157264 0.48665,10.295847 v 9.358433 l 8.04694,-7.963552 c 11.84198,-11.719264 13.46947,-13.133732 15.508,-13.478136 6.6858,-1.129564 20.23883,6.778104 28.99618,16.918145 3.59216,4.159303 5.47269,7.338793 5.47269,9.252883 0,3.73813 -5.43902,9.82772 -18.96933,21.23829 -4.60285,3.88174 -10.16126,8.64321 -12.35204,10.58103 -2.19076,1.93781 -6.74399,5.35866 -10.11829,7.60185 -9.29142,6.17685 -12.38998,10.06793 -11.75964,14.76739 0.11896,0.88643 1.37723,4.31483 2.79631,7.61866 4.13259,9.62132 5.37999,14.60757 4.39842,17.58178 -0.52315,1.58515 -2.19781,2.79709 -3.865,2.79709 -2.59847,0 -6.35652,-3.12175 -11.438,-9.50132 -4.335,-5.44241 -5.72634,-6.71396 -8.8663,-8.10292 -3.918,-1.73312 -7.76762,-2.1376 -20.34472,-2.1376 H 114.9753 l 0.241,9.76362 c 0.25191,10.20541 0.63111,12.89032 2.57808,18.25417 1.5418,4.2476 3.55602,7.34542 7.1612,11.01372 3.18338,3.23911 23.67557,19.41333 31.97317,25.23598 8.23208,5.77669 17.48504,10.92847 22.07818,12.29249 3.66623,1.08875 10.32424,0.88641 20.76104,-0.63094 7.31694,-1.06376 10.0951,-1.2888 14.24042,-1.15343 6.5001,0.21224 7.12911,0.48483 16.44729,7.12776 18.59541,13.25663 26.79799,18.32204 38.3944,23.71002 12.61875,5.86298 24.01304,15.24036 27.45463,22.59486 1.73265,3.70258 1.73359,6.30365 0.003,9.04245 -0.70018,1.10826 -3.04413,4.81536 -5.20878,8.238 -2.16467,3.42263 -5.47963,9.31299 -7.36661,13.08969 -5.41503,10.83798 -11.00354,17.90346 -20.73339,26.21295 -5.94903,5.08061 -10.60644,10.22518 -14.50236,16.0193 -2.77248,4.12332 -6.2991,10.57316 -6.98027,12.76624 l -0.2867,0.92307 4.81254,-1.01924 c 2.64689,-0.56059 7.32744,-1.71818 10.40121,-2.57246 z"
     id="path884" /></svg>
