<?xml version="1.0"?>
<svg xmlns="http://www.w3.org/2000/svg" viewBox="0 0 50 50">
    <path style="line-height:normal;text-indent:0;text-align:start;text-decoration-line:none;text-decoration-style:solid;text-decoration-color:#326CE5;text-transform:none;block-progression:tb;isolation:auto;mix-blend-mode:normal" d="M 25 3 C 21.698136 3 19 5.6981361 19 9 C 19 12.301864 21.698136 15 25 15 C 28.301864 15 31 12.301864 31 9 C 31 5.6981361 28.301864 3 25 3 z M 25 5 C 27.220984 5 29 6.7790164 29 9 C 29 11.220984 27.220984 13 25 13 C 22.779016 13 21 11.220984 21 9 C 21 6.7790164 22.779016 5 25 5 z M 24.998047 16.998047 C 21.247242 16.998047 16.359375 18.048828 16.359375 18.048828 A 1.0001 1.0001 0 0 0 15.917969 18.265625 L 15.898438 18.283203 C 14.84308 18.601879 14.01241 19.305167 13.525391 20.275391 L 13.523438 20.275391 L 13.5 20.296875 A 1.0001 1.0001 0 0 0 13.220703 20.679688 L 9.4160156 29.859375 A 1.0001 1.0001 0 0 0 9.3398438 30.255859 C 9.1805678 30.649428 9 31.037824 9 31.5 C 9 33.421188 10.578812 35 12.5 35 C 12.817215 35 13.100668 34.94873 13.34375 34.888672 L 15.5625 34.34375 C 15.475975 34.440716 15.431455 34.511001 15.324219 34.619141 C 14.796697 35.151104 14.047087 35.785234 13.292969 36.378906 C 11.784733 37.566251 10.263672 38.597656 10.263672 38.597656 A 1.0001 1.0001 0 0 0 9.9433594 38.953125 C 8.8182015 39.766803 8 41.004814 8 42.5 C 8 44.973438 10.026562 47 12.5 47 L 20.5 47 L 37.5 47 C 39.973438 47 42 44.973438 42 42.5 C 42 40.991697 41.169018 39.745775 40.027344 38.933594 A 1.0001 1.0001 0 0 0 39.722656 38.587891 C 39.722656 38.587891 38.207287 37.518886 36.703125 36.302734 C 35.951044 35.694658 35.202298 35.046919 34.673828 34.509766 C 34.620495 34.455556 34.603245 34.424746 34.554688 34.373047 L 36.65625 34.888672 C 36.899332 34.948729 37.182785 35 37.5 35 C 39.421188 35 41 33.421188 41 31.5 C 41 31.036655 40.817737 30.645492 40.65625 30.25 A 1.0001 1.0001 0 0 0 40.582031 29.859375 L 36.777344 20.679688 A 1.0001 1.0001 0 0 0 36.498047 20.296875 L 36.472656 20.275391 C 35.985844 19.305056 35.154717 18.601696 34.099609 18.283203 L 34.080078 18.265625 A 1.0001 1.0001 0 0 0 33.638672 18.048828 C 33.638672 18.048828 28.748852 16.998047 24.998047 16.998047 z M 24.998047 18.998047 C 28.30443 18.998047 32.95996 19.954288 33.125 19.988281 A 1.0001 1.0001 0 0 0 33.300781 20.033203 C 34.046908 20.146759 34.646589 20.664003 34.882812 21.361328 A 1.0001 1.0001 0 0 0 35.152344 21.777344 L 35.023438 21.669922 L 38.537109 30.148438 L 38.804688 29.720703 A 1.0001 1.0001 0 0 0 38.789062 30.753906 C 38.926344 30.989513 39 31.23414 39 31.5 C 39 32.340812 38.340812 33 37.5 33 C 37.397937 33 37.279314 32.983026 37.134766 32.947266 A 1.0001 1.0001 0 0 0 37.132812 32.947266 L 33.269531 32 A 1.0001 1.0001 0 0 0 33.238281 31.992188 L 25.238281 30.029297 A 1.0001 1.0001 0 0 0 25.140625 30.009766 A 1.0001 1.0001 0 0 0 25.041016 30 A 1.0001 1.0001 0 0 0 24.941406 30.001953 A 1.0001 1.0001 0 0 0 24.761719 30.029297 L 16.761719 31.992188 L 12.867188 32.947266 A 1.0001 1.0001 0 0 0 12.865234 32.947266 C 12.720732 32.98303 12.602063 33 12.5 33 C 11.659188 33 11 32.340812 11 31.5 C 11 31.23414 11.073929 30.987351 11.210938 30.75 A 1.0001 1.0001 0 0 0 11.193359 29.720703 L 11.460938 30.148438 L 14.974609 21.669922 L 14.8125 21.806641 A 1.0001 1.0001 0 0 0 15.115234 21.363281 C 15.352549 20.664706 15.951227 20.146745 16.697266 20.033203 A 1.0001 1.0001 0 0 0 16.884766 19.986328 A 1.0001 1.0001 0 0 0 16.890625 19.984375 C 17.084005 19.944585 21.702124 18.998047 24.998047 18.998047 z M 24.998047 20 C 24.45638 20 24.104398 20.300614 23.882812 20.546875 C 23.661227 20.793136 23.512082 21.051895 23.371094 21.333984 C 23.089117 21.898163 22.862174 22.558594 22.666016 23.212891 C 22.361499 24.228622 22.248061 24.82784 22.164062 25.224609 L 16.683594 27.050781 A 1.0005646 1.0005646 0 1 0 17.316406 28.949219 L 23.316406 26.949219 A 1.0001 1.0001 0 0 0 23.980469 26.195312 C 23.980469 26.195312 24.224847 24.978517 24.582031 23.787109 C 24.711162 23.356387 24.858254 23.005114 25 22.660156 C 25.141873 23.005107 25.286731 23.356447 25.416016 23.787109 C 25.773682 24.978536 26.019531 26.197266 26.019531 26.197266 A 1.0001 1.0001 0 0 0 26.683594 26.949219 L 32.683594 28.949219 A 1.0005646 1.0005646 0 1 0 33.316406 27.050781 L 27.835938 25.224609 C 27.751928 24.82846 27.637181 24.22938 27.332031 23.212891 C 27.135614 22.558604 26.909132 21.898117 26.626953 21.333984 C 26.485864 21.051918 26.336859 20.791117 26.115234 20.544922 C 25.893609 20.298727 25.539714 20 24.998047 20 z M 25 32.029297 L 32 33.748047 L 32 33.796875 C 32 34.357447 32.223269 34.661339 32.443359 34.976562 C 32.66345 35.291787 32.936001 35.594936 33.248047 35.912109 C 33.872139 36.546456 34.660644 37.222998 35.445312 37.857422 C 36.929246 39.057218 38.24448 39.983513 38.400391 40.09375 A 1.0001 1.0001 0 0 0 38.669922 40.308594 C 39.463532 40.733869 40 41.541745 40 42.5 C 40 43.892562 38.892562 45 37.5 45 L 20.5 45 C 19.659188 45 19 44.340812 19 43.5 C 19 42.759582 19.523198 42.159877 20.210938 42.027344 A 1.0001 1.0001 0 0 0 20.222656 42.025391 L 30.201172 39.980469 A 1.0001 1.0001 0 0 0 29.966797 37.998047 A 1.0001 1.0001 0 0 0 29.798828 38.019531 L 19.832031 40.064453 C 18.21577 40.375924 17 41.806418 17 43.5 C 17 44.03801 17.134994 44.542844 17.355469 45 L 12.5 45 C 11.107438 45 10 43.892562 10 42.5 C 10 41.550622 10.527004 40.748207 11.308594 40.320312 A 1.0001 1.0001 0 0 0 11.556641 40.128906 C 11.713725 40.022205 13.037591 39.127041 14.53125 37.951172 C 15.321132 37.329344 16.113663 36.66313 16.744141 36.027344 C 17.05938 35.70945 17.335812 35.401331 17.558594 35.078125 C 17.781375 34.754919 18 34.428379 18 33.880859 L 18 33.748047 L 25 32.029297 z" font-weight="400" font-family="sans-serif" white-space="normal" overflow="visible"/>
</svg>
