<?xml version="1.0" encoding="UTF-8" standalone="no"?>
<svg
   xmlns:dc="http://purl.org/dc/elements/1.1/"
   xmlns:cc="http://creativecommons.org/ns#"
   xmlns:rdf="http://www.w3.org/1999/02/22-rdf-syntax-ns#"
   xmlns:svg="http://www.w3.org/2000/svg"
   xmlns="http://www.w3.org/2000/svg"
   xmlns:sodipodi="http://sodipodi.sourceforge.net/DTD/sodipodi-0.dtd"
   xmlns:inkscape="http://www.inkscape.org/namespaces/inkscape"
   height="264.84119"
   width="264.84421"
   fill="#000000"
   version="1.1"
   viewBox="0 0 66.211052 66.210297"
   x="0px"
   y="0px"
   id="svg58"
   sodipodi:docname="yinyang.svg"
   inkscape:version="1.0.1 (3bc2e813f5, 2020-09-07)">
  <metadata
     id="metadata64">
    <rdf:RDF>
      <cc:Work
         rdf:about="">
        <dc:format>image/svg+xml</dc:format>
        <dc:type
           rdf:resource="http://purl.org/dc/dcmitype/StillImage" />
        <dc:title></dc:title>
      </cc:Work>
    </rdf:RDF>
  </metadata>
  <defs
     id="defs62" />
  <sodipodi:namedview
     pagecolor="#ffffff"
     bordercolor="#666666"
     borderopacity="1"
     objecttolerance="10"
     gridtolerance="10"
     guidetolerance="10"
     inkscape:pageopacity="0"
     inkscape:pageshadow="2"
     inkscape:window-width="1847"
     inkscape:window-height="1390"
     id="namedview60"
     showgrid="false"
     inkscape:zoom="3.9766667"
     inkscape:cx="35.608244"
     inkscape:cy="132.17033"
     inkscape:window-x="1950"
     inkscape:window-y="34"
     inkscape:window-maximized="0"
     inkscape:current-layer="svg58"
     inkscape:document-rotation="0" />
  <path
     d="M 33.10575,0 C 24.26325,0 15.94875,3.442725 9.696,9.696 3.44295,15.94845 0,24.2625 0,33.10575 0,41.949 3.442725,50.26125 9.696,56.514 c 2.103975,2.104575 4.443975,3.889275 6.95655,5.333475 -2.1423,-3.1689 -3.395475,-6.985875 -3.395475,-11.09025 0,-10.94475 8.904,-19.84875 19.84875,-19.84875 8.5215,0 15.45375,-6.93285 15.45375,-15.45375 0,-8.5209 -6.93285,-15.45375 -15.45375,-15.45375 z M 49.56,4.3638 c 2.1429,3.1689 3.39405,6.98595 3.39405,11.09025 0,10.94475 -8.904,19.84875 -19.84875,19.84875 -8.5215,0 -15.45375,6.93285 -15.45375,15.45375 0,8.5209 6.93285,15.45375 15.45375,15.45375 8.8425,0 17.157,-3.444225 23.40975,-9.6975 6.25305,-6.252525 9.696,-14.565 9.696,-23.40825 0,-8.84325 -3.442725,-17.157 -9.696,-23.40975 C 54.411075,7.590225 52.0725,5.807025 49.56,4.36275 Z M 33.10575,6.660675 c 4.8489,0 8.79375,3.94515 8.79375,8.79375 0,4.8483 -3.944625,8.79225 -8.79375,8.79225 -4.8489,0 -8.79375,-3.943125 -8.79375,-8.79225 -2e-6,-4.848825 3.944625,-8.79375 8.79375,-8.79375 z m 0,4.39455 c -2.425575,0 -4.3989,1.973325 -4.3989,4.3989 -2e-6,2.425575 1.973325,4.397475 4.3989,4.397475 2.425575,0 4.3989,-1.9719 4.3989,-4.397475 0,-2.425575 -1.973325,-4.3989 -4.3989,-4.3989 z m 0,30.90825 c 4.8489,0 8.79375,3.94455 8.79375,8.79375 0,4.8492 -3.944625,8.79225 -8.79375,8.79225 -4.8489,0 -8.79375,-3.943125 -8.79375,-8.79225 -2e-6,-4.8489 3.944625,-8.79375 8.79375,-8.79375 z m 0,4.39455 c -2.425575,0 -4.3989,1.973325 -4.3989,4.3989 0,2.425575 1.973325,4.397475 4.3989,4.397475 2.425575,-1e-6 4.3989,-1.9719 4.3989,-4.397475 0,-2.425575 -1.973325,-4.3989 -4.3989,-4.3989 z"
     stroke-width="0.146482"
     id="path56" />
  <path
     style="fill:#217821;stroke-width:0.0628667"
     d="m 31.848415,66.136217 c -2.633297,-0.312139 -4.565857,-0.930674 -6.519097,-2.086505 -2.638745,-1.56148 -4.736974,-3.820472 -6.050111,-6.513665 -0.721545,-1.47986 -1.156451,-2.84059 -1.428799,-4.470412 -0.165015,-0.987505 -0.165154,-3.6003 -2.45e-4,-4.589273 0.372861,-2.236072 1.196439,-4.383492 2.350788,-6.129505 2.395107,-3.62272 6.105672,-6.060092 10.327264,-6.783705 0.977953,-0.16763 1.23176,-0.189102 3.049035,-0.25797 0.912415,-0.03458 1.91531,-0.110807 2.390915,-0.181737 5.939838,-0.885835 11.087885,-4.312603 14.17615,-9.436268 2.958965,-4.90915 3.63761,-10.940678 1.84734,-16.418464 C 51.51123,7.7987272 50.809688,6.2766557 50.049718,5.0554615 49.894885,4.8066612 49.779553,4.5917495 49.79342,4.5778797 c 0.03909,-0.039084 1.61603,0.9642365 2.444285,1.5551565 3.241215,2.3124563 6.217675,5.3758698 8.401328,8.6467638 4.875327,7.30275 6.625002,16.275815 4.868907,24.96978 -0.781152,3.86728 -2.306555,7.6543 -4.43142,11.001592 -2.80398,4.417108 -6.65929,8.16117 -11.153922,10.832075 -4.118008,2.447101 -8.512923,3.88543 -13.547778,4.433806 -0.856262,0.09326 -4.03823,0.17703 -4.526405,0.119164 z m 2.376145,-6.628865 c 3.700523,-0.464005 6.69417,-3.22597 7.527193,-6.944652 0.151589,-0.676702 0.190224,-2.440755 0.06955,-3.175517 -0.4574,-2.784988 -2.185123,-5.184608 -4.640193,-6.44473 -1.336148,-0.685808 -2.57159,-0.984156 -4.07536,-0.984156 -1.032463,0 -1.882757,0.130575 -2.758445,0.4236 -1.297655,0.434223 -2.336698,1.060423 -3.326068,2.004531 -0.789977,0.753832 -1.318427,1.472312 -1.805977,2.455402 -0.711728,1.43512 -0.94307,2.531613 -0.888683,4.21207 0.03686,1.13886 0.11211,1.587565 0.424408,2.530682 1.039037,3.137823 3.89635,5.492083 7.18736,5.921973 0.567682,0.07415 1.698055,0.07455 2.286215,7.5e-4 z"
     id="path66" />
  <path
     style="fill:#217821;stroke-width:0.0628667"
     d="M 16.037435,61.443322 C 13.725052,60.009773 11.890412,58.577397 9.9947905,56.725595 3.566321,50.445722 0.037854,42.075387 0.037854,33.10545 0.037854,24.152695 3.5684135,15.76812 9.9780963,9.498794 15.300812,4.292633 21.87407,1.1350732 29.208012,0.26142425 c 2.133098,-0.254103 4.769975,-0.2835195 6.129505,-0.0683798 3.331685,0.52722475 6.294948,2.01885195 8.616008,4.33706675 1.247847,1.2463198 2.23586,2.6210676 2.978768,4.1447401 0.721685,1.4801457 1.174297,2.8955967 1.419437,4.4389807 0.141703,0.892139 0.19243,2.932634 0.09613,3.866689 -0.35534,3.446543 -1.84706,6.647694 -4.26785,9.158577 -2.307055,2.392915 -5.243308,3.950989 -8.496723,4.50865 -0.983498,0.16858 -1.238843,0.190132 -3.049035,0.257372 -1.651035,0.06133 -2.664348,0.182095 -3.953093,0.471138 -4.502655,1.009862 -8.648653,3.69876 -11.459375,7.432 -1.455025,1.932585 -2.639115,4.330927 -3.264331,6.611817 -0.54879,2.002075 -0.746663,3.649325 -0.695631,5.79099 0.05517,2.31547 0.340699,3.949493 1.049088,6.003773 0.528026,1.53124 1.037663,2.597925 2.004921,4.196355 0.171017,0.282612 0.132764,0.287027 -0.278394,0.03213 z M 34.583117,24.139225 c 0.345768,-0.05275 0.920773,-0.192753 1.277791,-0.31112 3.146115,-1.04307 5.420237,-3.71552 5.960395,-7.004389 0.12068,-0.734794 0.08204,-2.498834 -0.06956,-3.175517 -0.76835,-3.429651 -3.307425,-6.0038727 -6.713007,-6.8059302 -0.638005,-0.1502585 -0.82685,-0.166527 -1.932985,-0.166527 -1.106135,0 -1.29498,0.016267 -1.932985,0.166527 -3.405583,0.8020575 -5.944658,3.3762792 -6.713008,6.8059302 -0.1516,0.676683 -0.19024,2.440723 -0.06956,3.175517 0.29718,1.809444 1.082515,3.393259 2.33098,4.700974 2.054773,2.152287 4.833853,3.076487 7.861939,2.614535 z"
     id="path68" />
  <path
     style="fill:#217821;stroke-width:0.0628667"
     d="m 32.327418,19.739804 c -1.622436,-0.293042 -2.981426,-1.551327 -3.432148,-3.177812 -0.155858,-0.562433 -0.169497,-1.5309 -0.02997,-2.127958 0.326165,-1.395709 1.462365,-2.623706 2.888815,-3.122206 0.454748,-0.15892 0.584253,-0.17576 1.351635,-0.17576 0.767383,0 0.896888,0.01684 1.351635,0.17576 1.426448,0.4985 2.56265,1.726497 2.888815,3.122206 0.1364,0.583669 0.124683,1.507565 -0.02662,2.099152 -0.419487,1.640187 -1.80722,2.917725 -3.487725,3.210781 -0.65734,0.11463 -0.849685,0.114098 -1.504437,-0.0042 z"
     id="path70" />
  <path
     style="fill:#326ce5;fill-opacity:1;stroke-width:0.0628667"
     d="M 32.06845,54.98849 C 31.46516,54.822895 31.195577,54.70198 30.704782,54.37685 29.82106,53.791425 29.096885,52.767852 28.8653,51.776867 c -0.139528,-0.59706 -0.125888,-1.565527 0.02997,-2.12796 0.341092,-1.23087 1.158625,-2.22667 2.296247,-2.796952 0.64693,-0.324303 1.14592,-0.438645 1.914233,-0.438645 0.76474,0 1.267302,0.114345 1.902907,0.432962 1.16419,0.583583 1.9674,1.564225 2.313003,2.82395 0.192047,0.700025 0.15508,1.801523 -0.08302,2.473448 -0.453428,1.279607 -1.466105,2.289475 -2.742425,2.734812 -0.7178,0.250455 -1.746313,0.29706 -2.42777,0.110008 z"
     id="path72" />
  <path
     style="fill:#326ce5;fill-opacity:1;stroke-width:0.0628667"
     d="m 31.282615,66.038263 c -0.838088,-0.126728 -2.046295,-0.390078 -2.701183,-0.588773 -3.44682,-1.045775 -6.605777,-3.496578 -8.550956,-6.634058 -0.879591,-1.418737 -1.668707,-3.393355 -2.008874,-5.02683 -0.35053,-1.683247 -0.353,-4.348077 -0.0056,-6.003772 0.405078,-1.93039 1.155803,-3.773878 2.177331,-5.346678 2.162269,-3.329152 5.480532,-5.689577 9.310909,-6.623255 1.089791,-0.265642 1.91847,-0.374417 3.390345,-0.445022 C 35.28609,35.255155 35.7808,35.20589 37.048295,34.956222 43.938685,33.59899 49.67284,28.55512 51.945597,21.852307 53.760415,16.500052 53.188772,10.462701 50.407795,5.6109532 50.16691,5.190701 49.95396,4.8057392 49.934575,4.7554825 c -0.04784,-0.124018 0.364018,0.1203482 1.594198,0.945887 3.99383,2.6801422 7.451467,6.3266825 9.979167,10.5243655 0.618095,1.026454 1.668315,3.121355 2.143118,4.274937 2.97119,7.218798 3.286855,15.39477 0.880727,22.81142 -0.94297,2.90661 -2.46691,5.986965 -4.19978,8.48906 -3.779972,5.45791 -9.109145,9.695628 -15.187277,12.076805 -3.034243,1.188701 -6.727673,2.006208 -9.80721,2.170741 -1.351615,0.07221 -3.54565,0.06657 -4.054903,-0.01042 z M 35.274653,59.3369 c 3.077862,-0.808428 5.443775,-3.108603 6.34586,-6.169543 0.36231,-1.229387 0.401955,-3.140305 0.09173,-4.4215 -0.417428,-1.723925 -1.264088,-3.195375 -2.53172,-4.4 -1.248288,-1.18624 -2.839663,-1.993272 -4.503105,-2.283657 -0.840288,-0.146688 -2.367813,-0.14897 -3.163608,-0.0047 -1.788045,0.324097 -3.334402,1.14822 -4.6633,2.485277 -0.800255,0.805168 -1.18801,1.344188 -1.676505,2.330508 -0.679885,1.37275 -0.86565,2.217618 -0.85702,3.897737 0.0069,1.347375 0.07198,1.791956 0.413983,2.829003 0.792905,2.404297 2.740967,4.448192 5.145107,5.398212 1.157433,0.45737 1.88538,0.574326 3.418275,0.549193 1.160723,-0.01902 1.312885,-0.0352 1.980303,-0.210508 z"
     id="path897" />
  <path
     style="fill:#326ce5;fill-opacity:1;stroke-width:0.0628667"
     d="m 32.288482,55.01482 c -0.03458,-0.01165 -0.260897,-0.08228 -0.502932,-0.15695 -0.568753,-0.175463 -1.22731,-0.58672 -1.67878,-1.048373 -0.460555,-0.47094 -0.55582,-0.597335 -0.822388,-1.09111 -0.386242,-0.715455 -0.45224,-1.00022 -0.451322,-1.947387 7.5e-4,-0.78572 0.0151,-0.888905 0.19325,-1.390473 0.47534,-1.338295 1.578462,-2.385397 2.94784,-2.79813 0.524302,-0.158027 1.738897,-0.158027 2.2632,0 2.60685,0.785713 3.913765,3.668168 2.739995,6.04317 -0.75826,1.53426 -2.22418,2.428348 -3.960235,2.415405 -0.366168,-0.0027 -0.69405,-0.0145 -0.728628,-0.02615 z"
     id="path899" />
  <path
     style="fill:#326ce5;fill-opacity:1;stroke-width:0.0628667"
     d="M 15.669533,61.16925 C 11.740904,58.679885 8.3428945,55.39922 5.7132905,51.556832 4.1490633,49.27118 2.6467358,46.241972 1.7691983,43.604192 -1.656382,33.307282 0.1622245,21.998013 6.6317283,13.365842 9.4806525,9.5645608 13.33764,6.2322138 17.48337,3.990278 21.196528,1.9822688 25.09944,0.775131 29.585212,0.24727875 30.94907,0.08679025 34.59267,0.0849635 35.494685,0.24431625 39.84853,1.0134768 43.512305,3.3838588 45.912367,6.9843273 c 1.023383,1.535235 1.92045,3.6807377 2.278645,5.4498017 0.462013,2.281802 0.340103,5.106863 -0.31419,7.28071 -1.48204,4.923984 -5.188505,8.760626 -9.993202,10.344174 -1.59161,0.524567 -2.618918,0.687185 -5.154605,0.81595 -2.043,0.103742 -3.067975,0.234797 -4.394968,0.56194 -2.245792,0.553655 -4.279795,1.452424 -6.252007,2.76259 -4.794597,3.185107 -7.979074,8.301472 -8.709992,13.99397 -0.26684,2.0782 -0.154376,4.80874 0.280944,6.821039 0.42554,1.9671 1.391308,4.37573 2.441561,6.089275 0.145382,0.2372 0.254551,0.441051 0.242598,0.453006 -0.01195,0.01195 -0.312381,-0.162438 -0.667618,-0.387533 z m 18.28443,-36.933245 c 0.857014,-0.08028 1.905812,-0.339227 2.627665,-0.64878 2.374512,-1.018262 4.220045,-3.076971 4.971235,-5.545459 0.313555,-1.030379 0.349557,-1.294743 0.345757,-2.538998 -0.0041,-1.352824 -0.0669,-1.817705 -0.370683,-2.745056 C 40.618122,9.9802908 38.528275,7.9020375 35.760207,7.0219815 34.729103,6.694161 34.14385,6.621147 32.82285,6.655527 31.823985,6.681523 31.568365,6.709732 31.011952,6.8553658 27.809598,7.693542 25.476235,9.9641038 24.560715,13.13297 c -0.199868,0.691799 -0.31585,2.020151 -0.259058,2.967032 0.223063,3.719121 2.927495,6.974196 6.56067,7.896473 1.090403,0.276795 1.967943,0.344785 3.091636,0.23953 z"
     id="path901" />
  <path
     style="fill:#326ce5;fill-opacity:1;stroke-width:0.0628667"
     d="m 32.194183,19.680197 c -0.993638,-0.212796 -2.088388,-0.969315 -2.660575,-1.838575 -0.55882,-0.84895 -0.775793,-1.67298 -0.71516,-2.716055 0.08546,-1.470225 0.97654,-2.791824 2.37178,-3.517707 0.664422,-0.345672 1.084917,-0.442896 1.915522,-0.442896 0.83104,0 1.251078,0.09721 1.917003,0.443665 1.06409,0.5536 1.842902,1.470304 2.240177,2.636804 0.09274,0.272307 0.117343,0.526078 0.115805,1.194468 -0.0018,0.783497 -0.0167,0.890324 -0.193962,1.390471 -0.389745,1.099699 -1.156598,1.966644 -2.183,2.46794 -0.941668,0.459909 -1.859995,0.58482 -2.80759,0.381885 z"
     id="path903" />
</svg>
